# xmcd
#
# Track frame offsets:
#	150
#	19495
#	31285
#	48477
#	70120
#	83310
#	97110
#	110974
#	125482
#	147269
#
# Disc length: 2430 seconds
#
# Revision: 1
# Processed by: cddbd v1.5.2PL0 Copyright (c) Steve Scherf et al.
# Submitted via: audiograbber 1.83.01
#
DISCID=8a097c0a
DTITLE=John Dowling and Dan Walsh - The Chapel Sessions
DYEAR=2016
DGENRE=Bluegrass
TTITLE0=AVP
TTITLE1=Themis
TTITLE2=Angeline the Baker
TTITLE3=Two lives lost
TTITLE4=Blackberry Blossom
TTITLE5=Rain and Snow
TTITLE6=Whiskey Before Breakfast
TTITLE7=Old Joe Clark
TTITLE8=Rainy Days
TTITLE9=Hornpipe - Oscar's Pause
EXTD=
EXTT0=
EXTT1=
EXTT2=
EXTT3=
EXTT4=
EXTT5=
EXTT6=
EXTT7=
EXTT8=
EXTT9=
PLAYORDER=
